<?xml version="1.0" encoding="UTF-8"?>
<svg xmlns="http://www.w3.org/2000/svg" viewBox="0 0 360 180" role="img" aria-label="Caulfield racecourse">
  <title>Caulfield</title>
  <defs>
    <linearGradient id="rccaulfield-sky" x1="0" y1="0" x2="0" y2="1">
      <stop offset="0" stop-color="#7EB0DC"/>
      <stop offset="1" stop-color="#B5D4EF"/>
    </linearGradient>
  </defs>
  <g id="scene">
    <rect width="360" height="100" fill="url(#rccaulfield-sky)"/>
    
    <path d="M0 72 L360 72 L360 100 L0 100 Z" fill="#1A5230"/>
    <path d="M24 50 L24 36 L104 36 L104 50 Z M30 36 L30 30 L50 24 L70 30 L70 36" fill="#3A3F4B"/>
    <path d="M52 14 C78 12 94 30 90 48 C84 58 58 58 38 50 C22 42 30 18 52 14 Z" fill="none" stroke="#1E6F4A" stroke-width="2" transform="translate(200 18) scale(.55)"/>
    <text x="16" y="26" fill="#ffffff" font-family="system-ui,sans-serif" font-size="15" font-weight="700" paint-order="stroke fill" stroke="rgba(0,0,0,.35)" stroke-width="2">Caulfield</text>
  </g>
  <g id="track-map" transform="translate(0 108)">
    <rect width="360" height="72" rx="12" fill="#141820"/>
    <g transform="translate(130 6) scale(1)">
      <path d="M52 14 C78 12 94 30 90 48 C84 58 58 58 38 50 C22 42 30 18 52 14 Z" fill="none" stroke="#1E6F4A" stroke-width="1.6" opacity=".9"/>
      <path d="M88 30 L96 44" fill="none" stroke="#1E6F4A" stroke-width="1.4" stroke-dasharray="4 3" opacity=".75"/>
      <circle cx="88" cy="52" r="2.8" fill="#1E6F4A"/>
      <text x="50" y="56" text-anchor="middle" fill="#9aa2b2" font-family="system-ui,sans-serif" font-size="8" font-weight="600" letter-spacing=".08em">CAULFIELD</text>
    </g>
  </g>
</svg>
