<?xml version="1.0" encoding="UTF-8"?>
<svg xmlns="http://www.w3.org/2000/svg" class="afl-stadium-svg" viewBox="0 0 200 120" role="img" aria-label="York Park stylised stadium" data-venue-id="yorkpark">
<defs><linearGradient id="aflPitch" x1="0" y1="0" x2="0" y2="1"><stop offset="0" stop-color="#3cb268"/><stop offset="1" stop-color="#267a46"/></linearGradient></defs><g class="afl-stadium-scene"><ellipse cx="100" cy="40" rx="62" ry="14" fill="rgba(200,210,225,0.4525)" stroke="rgba(255,255,255,.08)"/><path d="M46 38 Q100 24 154 38 Z" fill="#6e7f94" stroke="rgba(0,0,0,.22)" stroke-width=".6" opacity=".92"/><path d="M46 98 Q100 112 154 98 Z" fill="#6e7f94" stroke="rgba(0,0,0,.22)" stroke-width=".6" opacity=".88"/><path d="M40.4 38 L37.2 68 L40.4 98 Z" fill="#6e7f94" stroke="rgba(0,0,0,.22)" stroke-width=".6" opacity=".86"/><path d="M159.6 38 L162.8 68 L159.6 98 Z" fill="#6e7f94" stroke="rgba(0,0,0,.22)" stroke-width=".6" opacity=".86"/><ellipse cx="100" cy="68" rx="48" ry="26" fill="url(#aflPitch)" stroke="#1f6d3d" stroke-width=".8"/><ellipse cx="100" cy="68" rx="7" ry="3.5" fill="none" stroke="rgba(255,255,255,.32)" stroke-width=".7"/><line x1="100" y1="42" x2="100" y2="94" stroke="rgba(255,255,255,.18)" stroke-width=".6"/><rect x="36.8" y="21.8" width="2.4" height="20.2" fill="#3d4658" rx=".4"/><line x1="38" y1="21.8" x2="38" y2="12.8" stroke="#9eb0c8" stroke-width="1.2"/><circle cx="38" cy="12.8" r="2.2" fill="#ffe9a8" opacity=".9"/><rect x="160.8" y="21.8" width="2.4" height="20.2" fill="#3d4658" rx=".4"/><line x1="162" y1="21.8" x2="162" y2="12.8" stroke="#9eb0c8" stroke-width="1.2"/><circle cx="162" cy="12.8" r="2.2" fill="#ffe9a8" opacity=".9"/><rect x="36.8" y="73.8" width="2.4" height="20.2" fill="#3d4658" rx=".4"/><line x1="38" y1="73.8" x2="38" y2="64.8" stroke="#9eb0c8" stroke-width="1.2"/><circle cx="38" cy="64.8" r="2.2" fill="#ffe9a8" opacity=".9"/><rect x="160.8" y="73.8" width="2.4" height="20.2" fill="#3d4658" rx=".4"/><line x1="162" y1="73.8" x2="162" y2="64.8" stroke="#9eb0c8" stroke-width="1.2"/><circle cx="162" cy="64.8" r="2.2" fill="#ffe9a8" opacity=".9"/></g>
</svg>
